<svg xmlns="http://www.w3.org/2000/svg" width="556.234" height="347.648" viewBox="0 0 556.234 347.648">
  <path id="bread" d="M467.833,155.868c3.768,31.542.713,65.64-15.857,70.1,0,0-12.85-58.808-48.877-101.326a353.383,353.383,0,0,0-44.443-12.252c9.323,35.255,10.389,90.434-11.01,96.195,0,0-13.164-60.993-50.674-103.647-6.257-.282-12.479-.647-18.855-.647a410.594,410.594,0,0,0-42.739,2.44c10.766,34.644,13.217,95.773-9.372,101.854,0,0-11.411-51.438-42.363-92.912a336.117,336.117,0,0,0-55.1,18.583c12.81,32.484,17.442,102.558-6.832,109.094,0,0-9.763-45.516-36.577-85.4C32.5,193.262,0,243.183,0,299.506c0,69.546,48.243,152.435,278.117,152.435s278.117-82.889,278.117-152.435c0-57.458-33.868-108.22-88.4-143.638Z" transform="translate(0 -104.293)" fill="#fff"/>
</svg>
